<svg width="20" height="21" viewBox="0 0 20 21" fill="none" xmlns="http://www.w3.org/2000/svg">
<path d="M13 6.3252H13.01M1 14.3252L6 9.32519C6.928 8.43219 8.072 8.43219 9 9.32519L14 14.3252M12 12.3252L13 11.3252C13.928 10.4322 15.072 10.4322 16 11.3252L19 14.3252M1 4.3252C1 3.52955 1.31607 2.76648 1.87868 2.20388C2.44129 1.64127 3.20435 1.3252 4 1.3252H16C16.7956 1.3252 17.5587 1.64127 18.1213 2.20388C18.6839 2.76648 19 3.52955 19 4.3252V16.3252C19 17.1208 18.6839 17.8839 18.1213 18.4465C17.5587 19.0091 16.7956 19.3252 16 19.3252H4C3.20435 19.3252 2.44129 19.0091 1.87868 18.4465C1.31607 17.8839 1 17.1208 1 16.3252V4.3252Z" stroke="#598ef7" stroke-width="2" stroke-linecap="round" stroke-linejoin="round"/>
</svg>
