<svg width="33" height="32" viewBox="0 0 33 32" fill="none" xmlns="http://www.w3.org/2000/svg">
<path d="M9.58855 1.9C5.89966 1.9 2.8987 4.90096 2.8987 8.58984C2.8987 12.2787 5.89966 15.2797 9.58855 15.2797C13.2774 15.2797 16.2784 12.2787 16.2784 8.58984C16.2784 4.90096 13.2774 1.9 9.58855 1.9ZM9.58855 14.2047C6.49263 14.2047 3.9737 11.6858 3.9737 8.58984C3.9737 5.49387 6.49263 2.975 9.58855 2.975C12.6845 2.975 15.2034 5.49387 15.2034 8.58984C15.2034 11.6858 12.6845 14.2047 9.58855 14.2047ZM11.1613 8.14123C11.4848 7.77283 11.6814 7.28998 11.6814 6.76208C11.6814 5.60801 10.7427 4.66927 9.5886 4.66927C8.43453 4.66927 7.49584 5.60802 7.49584 6.76208C7.49584 7.28998 7.69244 7.77283 8.01587 8.14123C6.80943 8.72694 5.97493 9.96406 5.97493 11.3936C5.97493 11.6904 6.21559 11.9311 6.51243 11.9311H12.6648C12.9616 11.9311 13.2023 11.6904 13.2023 11.3936C13.2022 9.96407 12.3678 8.72689 11.1613 8.14123ZM8.57079 6.76202C8.57079 6.20087 9.02745 5.74421 9.58855 5.74421C10.1496 5.74421 10.6064 6.20087 10.6064 6.76202C10.6064 7.32317 10.1496 7.77984 9.58855 7.77984C9.02745 7.77984 8.57079 7.32318 8.57079 6.76202ZM7.10711 10.856C7.35434 9.71349 8.37331 8.85484 9.58855 8.85484C10.8038 8.85484 11.8228 9.71349 12.07 10.856H7.10711ZM9.58855 16.7203C5.89966 16.7203 2.8987 19.7213 2.8987 23.4102C2.8987 27.099 5.89966 30.1 9.58855 30.1C13.2774 30.1 16.2784 27.099 16.2784 23.4102C16.2784 19.7213 13.2774 16.7203 9.58855 16.7203ZM9.58855 29.025C6.49263 29.025 3.9737 26.5061 3.9737 23.4102C3.9737 20.3142 6.49263 17.7953 9.58855 17.7953C12.6845 17.7953 15.2034 20.3142 15.2034 23.4102C15.2034 26.5061 12.6845 29.025 9.58855 29.025ZM11.1613 22.9615C11.4848 22.5931 11.6814 22.1102 11.6814 21.5823C11.6814 20.4282 10.7427 19.4895 9.5886 19.4895C8.43453 19.4895 7.49584 20.4283 7.49584 21.5823C7.49584 22.1102 7.69244 22.5931 8.01587 22.9615C6.80943 23.5472 5.97493 24.7843 5.97493 26.2138C5.97493 26.5107 6.21559 26.7513 6.51243 26.7513H12.6648C12.9616 26.7513 13.2023 26.5107 13.2023 26.2138C13.2022 24.7843 12.3678 23.5472 11.1613 22.9615ZM8.57079 21.5823C8.57079 21.0212 9.02745 20.5645 9.58855 20.5645C10.1496 20.5645 10.6064 21.0212 10.6064 21.5823C10.6064 22.1434 10.1497 22.6001 9.58855 22.6001C9.02744 22.6001 8.57079 22.1435 8.57079 21.5823ZM12.07 25.6763H7.10711C7.35434 24.5338 8.37331 23.6751 9.58855 23.6751C10.8038 23.6751 11.8228 24.5338 12.07 25.6763ZM19.3295 8.05234C19.0327 8.05234 18.792 8.29301 18.792 8.58984C18.792 8.88674 19.0327 9.12734 19.3295 9.12734H30.5612C30.858 9.12734 31.0987 8.88668 31.0987 8.58984C31.0987 8.29301 30.858 8.05234 30.5612 8.05234H19.3295ZM30.5612 12.0395C30.858 12.0395 31.0987 11.7988 31.0987 11.502C31.0987 11.2051 30.858 10.9645 30.5612 10.9645H19.3295C19.0327 10.9645 18.792 11.2051 18.792 11.502C18.792 11.7988 19.0327 12.0395 19.3295 12.0395H30.5612ZM19.3295 5.14023C19.0327 5.14023 18.792 5.3809 18.792 5.67773C18.792 5.97463 19.0327 6.21523 19.3295 6.21523H26.9409C27.2378 6.21523 27.4784 5.97457 27.4784 5.67773C27.4784 5.3809 27.2378 5.14023 26.9409 5.14023H19.3295ZM30.5612 23.9477C30.858 23.9477 31.0987 23.707 31.0987 23.4102C31.0987 23.1133 30.858 22.8727 30.5612 22.8727H19.3295C19.0327 22.8727 18.792 23.1133 18.792 23.4102C18.792 23.707 19.0327 23.9477 19.3295 23.9477H30.5612ZM30.5612 26.8598C30.858 26.8598 31.0987 26.6191 31.0987 26.3223C31.0987 26.0254 30.858 25.7848 30.5612 25.7848H19.3295C19.0327 25.7848 18.792 26.0254 18.792 26.3223C18.792 26.6191 19.0327 26.8598 19.3295 26.8598H30.5612ZM19.3295 19.9605C19.0327 19.9605 18.792 20.2012 18.792 20.498C18.792 20.7949 19.0327 21.0355 19.3295 21.0355H26.9409C27.2378 21.0355 27.4784 20.7949 27.4784 20.498C27.4784 20.2012 27.2378 19.9605 26.9409 19.9605H19.3295Z" fill="currentColor" stroke="currentColor" stroke-width="0.2"/>
</svg>
