<svg width="33" height="32" viewBox="0 0 33 32" fill="none" xmlns="http://www.w3.org/2000/svg">
<path d="M9.58972 1.9C5.90084 1.9 2.89988 4.90096 2.89988 8.58984C2.89988 12.2787 5.90084 15.2797 9.58972 15.2797C13.2786 15.2797 16.2796 12.2787 16.2796 8.58984C16.2796 4.90096 13.2786 1.9 9.58972 1.9ZM9.58972 14.2047C6.4938 14.2047 3.97488 11.6858 3.97488 8.58984C3.97488 5.49387 6.4938 2.975 9.58972 2.975C12.6857 2.975 15.2046 5.49387 15.2046 8.58984C15.2046 11.6858 12.6857 14.2047 9.58972 14.2047ZM11.1625 8.14123C11.4859 7.77283 11.6826 7.28998 11.6826 6.76208C11.6826 5.60801 10.7438 4.66927 9.58978 4.66927C8.43571 4.66927 7.49702 5.60802 7.49702 6.76208C7.49702 7.28998 7.69361 7.77283 8.01705 8.14123C6.81061 8.72694 5.9761 9.96406 5.9761 11.3936C5.9761 11.6904 6.21677 11.9311 6.5136 11.9311H12.6659C12.9628 11.9311 13.2034 11.6904 13.2034 11.3936C13.2034 9.96407 12.369 8.72689 11.1625 8.14123ZM9.58972 16.7203C5.90084 16.7203 2.89988 19.7213 2.89988 23.4102C2.89988 27.099 5.90084 30.1 9.58972 30.1C13.2786 30.1 16.2796 27.099 16.2796 23.4102C16.2796 19.7213 13.2786 16.7203 9.58972 16.7203ZM9.58972 29.025C6.4938 29.025 3.97488 26.5061 3.97488 23.4102C3.97488 20.3142 6.4938 17.7953 9.58972 17.7953C12.6857 17.7953 15.2046 20.3142 15.2046 23.4102C15.2046 26.5061 12.6857 29.025 9.58972 29.025ZM11.1625 22.9615C11.4859 22.5931 11.6826 22.1102 11.6826 21.5823C11.6826 20.4282 10.7438 19.4895 9.58978 19.4895C8.43571 19.4895 7.49702 20.4283 7.49702 21.5823C7.49702 22.1102 7.69361 22.5931 8.01705 22.9615C6.81061 23.5472 5.9761 24.7843 5.9761 26.2138C5.9761 26.5107 6.21677 26.7513 6.5136 26.7513H12.6659C12.9628 26.7513 13.2034 26.5107 13.2034 26.2138C13.2034 24.7843 12.3689 23.5472 11.1625 22.9615ZM19.3307 8.05234C19.0339 8.05234 18.7932 8.29301 18.7932 8.58984C18.7932 8.88674 19.0339 9.12734 19.3307 9.12734H30.5624C30.8592 9.12734 31.0999 8.88668 31.0999 8.58984C31.0999 8.29301 30.8592 8.05234 30.5624 8.05234H19.3307ZM30.5624 12.0395C30.8592 12.0395 31.0999 11.7988 31.0999 11.502C31.0999 11.2051 30.8592 10.9645 30.5624 10.9645H19.3307C19.0339 10.9645 18.7932 11.2051 18.7932 11.502C18.7932 11.7988 19.0339 12.0395 19.3307 12.0395H30.5624ZM19.3307 5.14023C19.0339 5.14023 18.7932 5.3809 18.7932 5.67773C18.7932 5.97463 19.0339 6.21523 19.3307 6.21523H26.9421C27.239 6.21523 27.4796 5.97457 27.4796 5.67773C27.4796 5.3809 27.239 5.14023 26.9421 5.14023H19.3307ZM30.5624 23.9477C30.8592 23.9477 31.0999 23.707 31.0999 23.4102C31.0999 23.1133 30.8592 22.8727 30.5624 22.8727H19.3307C19.0339 22.8727 18.7932 23.1133 18.7932 23.4102C18.7932 23.707 19.0339 23.9477 19.3307 23.9477H30.5624ZM30.5624 26.8598C30.8592 26.8598 31.0999 26.6191 31.0999 26.3223C31.0999 26.0254 30.8592 25.7848 30.5624 25.7848H19.3307C19.0339 25.7848 18.7932 26.0254 18.7932 26.3223C18.7932 26.6191 19.0339 26.8598 19.3307 26.8598H30.5624ZM19.3307 19.9605C19.0339 19.9605 18.7932 20.2012 18.7932 20.498C18.7932 20.7949 19.0339 21.0355 19.3307 21.0355H26.9421C27.239 21.0355 27.4796 20.7949 27.4796 20.498C27.4796 20.2012 27.239 19.9605 26.9421 19.9605H19.3307Z" fill="#0069CA" stroke="#0069CA" stroke-width="0.2"/>
</svg>
