<svg width="16" height="17" viewBox="0 0 16 17" fill="none" xmlns="http://www.w3.org/2000/svg">
<g clip-path="url(#clip0_1614_3972)">
<path d="M11.3333 1.83325C10.9667 1.83325 10.6667 2.13325 10.6667 2.49992V3.16659H5.33333V2.49992C5.33333 2.13325 5.03333 1.83325 4.66667 1.83325C4.3 1.83325 4 2.13325 4 2.49992V3.16659H3.33333C2.59333 3.16659 2.00667 3.76659 2.00667 4.49992L2 13.8333C2 14.5666 2.59333 15.1666 3.33333 15.1666H12.6667C13.4 15.1666 14 14.5666 14 13.8333V4.49992C14 3.76659 13.4 3.16659 12.6667 3.16659H12V2.49992C12 2.13325 11.7 1.83325 11.3333 1.83325ZM12.6667 13.8333H3.33333V7.16658H12.6667V13.8333ZM7.33333 9.16658C7.33333 8.79992 7.63333 8.49992 8 8.49992C8.36667 8.49992 8.66667 8.79992 8.66667 9.16658C8.66667 9.53325 8.36667 9.83325 8 9.83325C7.63333 9.83325 7.33333 9.53325 7.33333 9.16658ZM4.66667 9.16658C4.66667 8.79992 4.96667 8.49992 5.33333 8.49992C5.7 8.49992 6 8.79992 6 9.16658C6 9.53325 5.7 9.83325 5.33333 9.83325C4.96667 9.83325 4.66667 9.53325 4.66667 9.16658ZM10 9.16658C10 8.79992 10.3 8.49992 10.6667 8.49992C11.0333 8.49992 11.3333 8.79992 11.3333 9.16658C11.3333 9.53325 11.0333 9.83325 10.6667 9.83325C10.3 9.83325 10 9.53325 10 9.16658ZM7.33333 11.8333C7.33333 11.4666 7.63333 11.1666 8 11.1666C8.36667 11.1666 8.66667 11.4666 8.66667 11.8333C8.66667 12.1999 8.36667 12.4999 8 12.4999C7.63333 12.4999 7.33333 12.1999 7.33333 11.8333ZM4.66667 11.8333C4.66667 11.4666 4.96667 11.1666 5.33333 11.1666C5.7 11.1666 6 11.4666 6 11.8333C6 12.1999 5.7 12.4999 5.33333 12.4999C4.96667 12.4999 4.66667 12.1999 4.66667 11.8333ZM10 11.8333C10 11.4666 10.3 11.1666 10.6667 11.1666C11.0333 11.1666 11.3333 11.4666 11.3333 11.8333C11.3333 12.1999 11.0333 12.4999 10.6667 12.4999C10.3 12.4999 10 12.1999 10 11.8333Z" fill="#777777"/>
</g>
<defs>
<clipPath id="clip0_1614_3972">
<rect width="16" height="16" fill="white" transform="translate(0 0.5)"/>
</clipPath>
</defs>
</svg>
