<svg width="20" height="19" viewBox="0 0 20 19" fill="none" xmlns="http://www.w3.org/2000/svg">
<path d="M3 4.3252H4C4.53043 4.3252 5.03914 4.11448 5.41421 3.73941C5.78929 3.36434 6 2.85563 6 2.3252C6 2.05998 6.10536 1.80563 6.29289 1.61809C6.48043 1.43055 6.73478 1.3252 7 1.3252H13C13.2652 1.3252 13.5196 1.43055 13.7071 1.61809C13.8946 1.80563 14 2.05998 14 2.3252C14 2.85563 14.2107 3.36434 14.5858 3.73941C14.9609 4.11448 15.4696 4.3252 16 4.3252H17C17.5304 4.3252 18.0391 4.53591 18.4142 4.91098C18.7893 5.28605 19 5.79476 19 6.3252V15.3252C19 15.8556 18.7893 16.3643 18.4142 16.7394C18.0391 17.1145 17.5304 17.3252 17 17.3252H3C2.46957 17.3252 1.96086 17.1145 1.58579 16.7394C1.21071 16.3643 1 15.8556 1 15.3252V6.3252C1 5.79476 1.21071 5.28605 1.58579 4.91098C1.96086 4.53591 2.46957 4.3252 3 4.3252Z" stroke="#fff" stroke-width="2" stroke-linecap="round" stroke-linejoin="round"/>
<path d="M7 10.3252C7 11.1208 7.31607 11.8839 7.87868 12.4465C8.44129 13.0091 9.20435 13.3252 10 13.3252C10.7956 13.3252 11.5587 13.0091 12.1213 12.4465C12.6839 11.8839 13 11.1208 13 10.3252C13 9.52955 12.6839 8.76648 12.1213 8.20387C11.5587 7.64127 10.7956 7.3252 10 7.3252C9.20435 7.3252 8.44129 7.64127 7.87868 8.20387C7.31607 8.76648 7 9.52955 7 10.3252Z" stroke="#fff" stroke-width="2" stroke-linecap="round" stroke-linejoin="round"/>
</svg>
