<svg width="18" height="15" viewBox="0 0 18 15" fill="none" xmlns="http://www.w3.org/2000/svg">
<path fill-rule="evenodd" clip-rule="evenodd" d="M4.63438 3.125H2.75C2.2525 3.125 1.77562 3.3225 1.42437 3.67438C1.0725 4.02563 0.875 4.5025 0.875 5V12.5C0.875 12.9975 1.0725 13.4744 1.42437 13.8256C1.77562 14.1775 2.2525 14.375 2.75 14.375H15.25C15.7475 14.375 16.2244 14.1775 16.5756 13.8256C16.9275 13.4744 17.125 12.9975 17.125 12.5V5C17.125 4.5025 16.9275 4.02563 16.5756 3.67438C16.2244 3.3225 15.7475 3.125 15.25 3.125H13.3656L12.9956 1.94062C12.7512 1.15812 12.0263 0.625 11.2063 0.625C10.0225 0.625 7.9775 0.625 6.79375 0.625C5.97375 0.625 5.24875 1.15812 5.00438 1.94062L4.63438 3.125ZM5.09375 4.375C5.36688 4.375 5.60875 4.1975 5.69 3.93625L6.1975 2.31375C6.27875 2.0525 6.52063 1.875 6.79375 1.875H11.2063C11.4794 1.875 11.7212 2.0525 11.8025 2.31375L12.31 3.93625C12.3912 4.1975 12.6331 4.375 12.9062 4.375H15.25C15.4156 4.375 15.575 4.44062 15.6919 4.55812C15.8094 4.675 15.875 4.83437 15.875 5V12.5C15.875 12.6656 15.8094 12.825 15.6919 12.9419C15.575 13.0594 15.4156 13.125 15.25 13.125H2.75C2.58438 13.125 2.425 13.0594 2.30813 12.9419C2.19063 12.825 2.125 12.6656 2.125 12.5V5C2.125 4.83437 2.19063 4.675 2.30813 4.55812C2.425 4.44062 2.58438 4.375 2.75 4.375H5.09375ZM9 4.375C6.93062 4.375 5.25 6.05562 5.25 8.125C5.25 10.1944 6.93062 11.875 9 11.875C11.0694 11.875 12.75 10.1944 12.75 8.125C12.75 6.05562 11.0694 4.375 9 4.375ZM9 5.625C10.38 5.625 11.5 6.745 11.5 8.125C11.5 9.505 10.38 10.625 9 10.625C7.62 10.625 6.5 9.505 6.5 8.125C6.5 6.745 7.62 5.625 9 5.625Z" fill="#0069CA"/>
</svg>
