<svg width="20" height="20" viewBox="0 0 20 20" fill="none" xmlns="http://www.w3.org/2000/svg">
<path d="M6 6.3252H14M6 10.3252H12M7 15.3252H4C3.20435 15.3252 2.44129 15.0091 1.87868 14.4465C1.31607 13.8839 1 13.1208 1 12.3252V4.3252C1 3.52955 1.31607 2.76648 1.87868 2.20388C2.44129 1.64127 3.20435 1.3252 4 1.3252H16C16.7956 1.3252 17.5587 1.64127 18.1213 2.20388C18.6839 2.76648 19 3.52955 19 4.3252V12.3252C19 13.1208 18.6839 13.8839 18.1213 14.4465C17.5587 15.0091 16.7956 15.3252 16 15.3252H13L10 18.3252L7 15.3252Z" stroke="#598ef7" stroke-width="2" stroke-linecap="round" stroke-linejoin="round"/>
</svg>
