<svg width="20" height="21" viewBox="0 0 20 21" fill="none" xmlns="http://www.w3.org/2000/svg">
<path d="M17 0.5H3C2.20435 0.5 1.44129 0.816071 0.87868 1.37868C0.316071 1.94129 0 2.70435 0 3.5V17.5C0 18.2956 0.316071 19.0587 0.87868 19.6213C1.44129 20.1839 2.20435 20.5 3 20.5H17C17.7956 20.5 18.5587 20.1839 19.1213 19.6213C19.6839 19.0587 20 18.2956 20 17.5V3.5C20 2.70435 19.6839 1.94129 19.1213 1.37868C18.5587 0.816071 17.7956 0.5 17 0.5ZM15.71 7.19L8.25 15.13C8.15589 15.2287 8.04259 15.3072 7.91705 15.3605C7.79151 15.4138 7.65639 15.4408 7.52 15.44C7.38361 15.4408 7.24849 15.4138 7.12295 15.3605C6.99741 15.3072 6.88411 15.2287 6.79 15.13L4.31 12.5C4.20874 12.4072 4.12768 12.2945 4.0719 12.169C4.01611 12.0434 3.98678 11.9078 3.98574 11.7704C3.98471 11.633 4.01198 11.4969 4.06587 11.3706C4.11975 11.2442 4.19909 11.1303 4.29894 11.036C4.39879 10.9416 4.51701 10.8689 4.64622 10.8222C4.77543 10.7756 4.91286 10.7561 5.04994 10.7649C5.18703 10.7737 5.32083 10.8107 5.44299 10.8735C5.56516 10.9363 5.67307 11.0236 5.76 11.13L7.52 13L14.25 5.84C14.343 5.74627 14.4536 5.67188 14.5754 5.62111C14.6973 5.57034 14.828 5.5442 14.96 5.5442C15.092 5.5442 15.2227 5.57034 15.3446 5.62111C15.4664 5.67188 15.577 5.74627 15.67 5.84C15.8442 6.0193 15.9449 6.25735 15.9523 6.50723C15.9597 6.75711 15.8733 7.0007 15.71 7.19Z" fill="#0069CA"/>
</svg>
