<svg width="52" height="53" viewBox="0 0 52 53" fill="none" xmlns="http://www.w3.org/2000/svg">
<rect y="0.5" width="52" height="52" rx="26" fill="#0069CA" fill-opacity="0.18"/>
<path d="M37.1721 34.0618L27.4643 17.2479C26.8132 16.1205 25.1868 16.1205 24.5357 17.2479L14.8278 34.0618C14.1793 35.1892 14.9925 36.5977 16.2921 36.5977H35.7078C37.0075 36.5977 37.8207 35.1892 37.1721 34.0618ZM25.0829 22.2715H26.9171C27.2996 22.2715 27.6011 22.5983 27.5681 22.9783L27.1577 27.8728C27.1299 28.2123 26.8461 28.4732 26.5066 28.4732H25.4933C25.1538 28.4732 24.8701 28.2123 24.8422 27.8728L24.4318 22.9783C24.3989 22.5983 24.7004 22.2715 25.0829 22.2715ZM26 33.8617C25.1285 33.8617 24.4217 33.1549 24.4217 32.2834C24.4217 31.4119 25.1285 30.7051 26 30.7051C26.8715 30.7051 27.5783 31.4119 27.5783 32.2834C27.5783 33.1549 26.8715 33.8617 26 33.8617Z" fill="#0069CA"/>
</svg>
