<svg width="15" height="15" viewBox="0 0 15 15" fill="none">
<path fill-rule="evenodd" clip-rule="evenodd" d="M0.293034 1.29309C0.480564 1.10561 0.734874 1.0003 1.00003 1.0003C1.26519 1.0003 1.5195 1.10561 1.70703 1.29309L7.00001 6.58608L12.293 1.29309C12.3853 1.19757 12.4956 1.12139 12.6176 1.06898C12.7396 1.01657 12.8709 0.98899 13.0036 0.98783C13.1364 0.98668 13.2681 1.01198 13.391 1.06226C13.5139 1.11254 13.6255 1.1868 13.7194 1.28069C13.8133 1.37458 13.8876 1.48623 13.9379 1.60913C13.9881 1.73203 14.0134 1.86371 14.0123 1.99649C14.0111 2.12927 13.9835 2.26049 13.9311 2.38249C13.8787 2.50449 13.8025 2.61484 13.707 2.70708L8.414 8.00008L13.707 13.2931C13.8892 13.4817 13.99 13.7343 13.9877 13.9965C13.9854 14.2587 13.8803 14.5095 13.6948 14.6949C13.5094 14.8803 13.2586 14.9855 12.9964 14.9878C12.7342 14.9901 12.4816 14.8893 12.293 14.7071L7.00001 9.41408L1.70703 14.7071C1.51843 14.8893 1.26583 14.9901 1.00363 14.9878C0.741435 14.9855 0.490624 14.8803 0.305214 14.6949C0.119804 14.5095 0.0146344 14.2587 0.0123644 13.9965C0.0100844 13.7343 0.110874 13.4817 0.293034 13.2931L5.58601 8.00008L0.293034 2.70708C0.105564 2.51956 0.000244141 2.26525 0.000244141 2.00008C0.000244141 1.73492 0.105564 1.48061 0.293034 1.29309Z" fill="currentColor"/>
</svg>
