<svg width="156" height="156" viewBox="0 0 156 156" fill="none" xmlns="http://www.w3.org/2000/svg">
<circle cx="78" cy="78" r="78" fill="#00112A"/>
<path fill-rule="evenodd" clip-rule="evenodd" d="M130.839 54.0285C131.107 54.0285 131.188 53.6647 130.945 53.5509L78.4048 28.889C78.3373 28.8573 78.2592 28.8573 78.1918 28.889L25.6511 53.5509C25.4086 53.6647 25.4897 54.0285 25.7576 54.0285H130.839ZM115.812 56.4549C115.812 56.3164 115.7 56.2042 115.561 56.2042H40.9046C40.7662 56.2042 40.654 56.3164 40.654 56.4549V62.251C40.654 62.3894 40.7662 62.5016 40.9046 62.5016H115.561C115.7 62.5016 115.812 62.3894 115.812 62.251V56.4549ZM40.6142 106.568C40.6142 106.429 40.7265 106.317 40.8649 106.317H115.521C115.66 106.317 115.772 106.429 115.772 106.568V110.176C115.772 110.314 115.884 110.427 116.023 110.427H117.878C118.016 110.427 118.129 110.539 118.129 110.677V114.42C118.129 114.558 118.016 114.671 117.878 114.671H38.5669C38.4285 114.671 38.3163 114.558 38.3163 114.42V110.677C38.3163 110.539 38.4285 110.427 38.5669 110.427H40.3636C40.502 110.427 40.6142 110.314 40.6142 110.176V106.568ZM36.1374 117.111C36.1374 116.973 36.2496 116.86 36.388 116.86H120.08C120.218 116.86 120.33 116.973 120.33 117.111V120.58C120.33 120.718 120.218 120.831 120.08 120.831H36.388C36.2496 120.831 36.1374 120.718 36.1374 120.58V117.111ZM52.8363 64.7023C50.1144 64.7023 47.9079 66.9088 47.9079 69.6307V99.2009C47.9079 101.923 50.1144 104.129 52.8363 104.129C55.5581 104.129 57.7647 101.923 57.7647 99.2009V69.6307C57.7647 66.9088 55.5581 64.7023 52.8363 64.7023ZM82.5263 69.6307C82.5263 66.9088 84.7328 64.7023 87.4547 64.7023C90.1766 64.7023 92.3831 66.9088 92.3831 69.6307V99.2009C92.3831 101.923 90.1766 104.129 87.4547 104.129C84.7328 104.129 82.5263 101.923 82.5263 99.2009V69.6307ZM70.2386 64.7023C67.5168 64.7023 65.3102 66.9088 65.3102 69.6307V99.2009C65.3102 101.923 67.5168 104.129 70.2386 104.129C72.9605 104.129 75.167 101.923 75.167 99.2009V69.6307C75.167 66.9088 72.9605 64.7023 70.2386 64.7023ZM99.9289 69.6307C99.9289 66.9088 102.135 64.7023 104.857 64.7023C107.579 64.7023 109.786 66.9088 109.786 69.6307V99.2009C109.786 101.923 107.579 104.129 104.857 104.129C102.135 104.129 99.9289 101.923 99.9289 99.2009V69.6307Z" fill="white"/>
</svg>
