<svg width="48" height="48" viewBox="0 0 48 48" fill="none" xmlns="http://www.w3.org/2000/svg">
<path d="M34.7795 41.5963H33.5391C26.4658 41.5963 11.5418 41.5963 4.46489 41.5963C3.07496 41.5963 1.94824 42.723 1.94824 44.113C1.94824 45.5028 3.07496 46.6296 4.46489 46.6296H34.7795C36.1695 46.6296 37.2962 45.5028 37.2962 44.113C37.2962 42.723 36.1695 41.5963 34.7795 41.5963Z" fill="currentColor"/>
<path d="M33.4184 37.319C33.4184 36.2743 32.5713 35.4272 31.5266 35.4272H7.7172C6.67251 35.4272 5.82544 36.2743 5.82544 37.319V40.1849H33.4184L33.4184 37.319Z" fill="currentColor"/>
<path d="M45.0851 31.5083L35.7252 22.1554C34.8216 21.2519 33.5298 20.9766 32.3863 21.3295L30.1529 19.0908C31.4725 17.5849 32.5279 15.9909 33.2772 14.4133L24.2419 5.37805C22.2654 6.31689 20.2608 7.72865 18.4396 9.54984C16.6184 11.371 15.2066 13.3828 14.2678 15.3592L23.296 24.3875C24.8734 23.6382 26.4717 22.583 27.9792 21.2636L30.2192 23.5036C30.1204 23.8283 30.071 24.1601 30.071 24.4989C30.071 25.346 30.3886 26.193 31.0381 26.8354L40.3981 36.1954C41.6898 37.4872 43.7863 37.4872 45.0851 36.1954C46.3739 34.9207 46.3752 32.7844 45.0851 31.5083Z" fill="currentColor"/>
<path d="M34.3338 13.4728C35.0088 14.1478 36.1032 14.1478 36.7782 13.4728C37.4532 12.7978 37.4532 11.7034 36.7782 11.0284L27.6267 1.87685C26.9517 1.20186 25.8573 1.20186 25.1823 1.87685C24.5073 2.55189 24.5073 3.64629 25.1823 4.32128L34.3338 13.4728Z" fill="currentColor"/>
<path d="M19.9144 27.8923C20.5894 28.5673 21.6838 28.5673 22.3588 27.8923C23.0337 27.2173 23.0337 26.1229 22.3588 25.4479L13.2073 16.2964C12.5323 15.6214 11.4379 15.6214 10.7629 16.2964C10.0879 16.9714 10.0878 18.0658 10.7628 18.7408L19.9144 27.8923Z" fill="currentColor"/>
</svg>
