<svg width="34" height="34" viewBox="0 0 34 34" fill="none" xmlns="http://www.w3.org/2000/svg">
<g filter="url(#filter0_d_5241_39509)">
<circle cx="17" cy="17" r="8" fill="#FAFAFA"/>
</g>
<g clip-path="url(#clip0_5241_39509)">
<path d="M13.8003 15H20.2003" stroke="#00112A" stroke-width="0.6" stroke-linecap="round" stroke-linejoin="round"/>
<path d="M16.2002 16.5999V18.9999" stroke="#00112A" stroke-width="0.6" stroke-linecap="round" stroke-linejoin="round"/>
<path d="M17.8003 16.5999V18.9999" stroke="#00112A" stroke-width="0.6" stroke-linecap="round" stroke-linejoin="round"/>
<path d="M14.2002 15L14.6002 19.8C14.6002 20.0122 14.6845 20.2157 14.8345 20.3657C14.9845 20.5157 15.188 20.6 15.4002 20.6H18.6002C18.8124 20.6 19.0159 20.5157 19.1659 20.3657C19.3159 20.2157 19.4002 20.0122 19.4002 19.8L19.8002 15" stroke="#00112A" stroke-width="0.6" stroke-linecap="round" stroke-linejoin="round"/>
<path d="M15.8003 14.9999V13.7999C15.8003 13.6938 15.8424 13.5921 15.9175 13.5171C15.9925 13.442 16.0942 13.3999 16.2003 13.3999H17.8003C17.9064 13.3999 18.0081 13.442 18.0831 13.5171C18.1582 13.5921 18.2003 13.6938 18.2003 13.7999V14.9999" stroke="#00112A" stroke-width="0.6" stroke-linecap="round" stroke-linejoin="round"/>
</g>
<defs>
<filter id="filter0_d_5241_39509" x="0" y="0" width="34" height="34" filterUnits="userSpaceOnUse" color-interpolation-filters="sRGB">
<feFlood flood-opacity="0" result="BackgroundImageFix"/>
<feColorMatrix in="SourceAlpha" type="matrix" values="0 0 0 0 0 0 0 0 0 0 0 0 0 0 0 0 0 0 127 0" result="hardAlpha"/>
<feOffset/>
<feGaussianBlur stdDeviation="4.5"/>
<feComposite in2="hardAlpha" operator="out"/>
<feColorMatrix type="matrix" values="0 0 0 0 0 0 0 0 0 0 0 0 0 0 0 0 0 0 0.1 0"/>
<feBlend mode="normal" in2="BackgroundImageFix" result="effect1_dropShadow_5241_39509"/>
<feBlend mode="normal" in="SourceGraphic" in2="effect1_dropShadow_5241_39509" result="shape"/>
</filter>
<clipPath id="clip0_5241_39509">
<rect width="9.6" height="9.6" fill="white" transform="translate(12.2002 12.2)"/>
</clipPath>
</defs>
</svg>
