<svg width="10" height="15" viewBox="0 0 10 15" fill="none" xmlns="http://www.w3.org/2000/svg">
<path d="M2 0.5C1.46957 0.5 0.960859 0.710714 0.585786 1.08579C0.210714 1.46086 0 1.96957 0 2.5V12.5C0 13.0304 0.210714 13.5391 0.585786 13.9142C0.960859 14.2893 1.46957 14.5 2 14.5H8C8.53043 14.5 9.03914 14.2893 9.41421 13.9142C9.78929 13.5391 10 13.0304 10 12.5V4.914C9.99965 4.51631 9.84139 4.13504 9.56 3.854L6.647 0.939C6.50764 0.799733 6.34222 0.689283 6.16017 0.613959C5.97812 0.538634 5.78302 0.499911 5.586 0.5H2ZM1 2.5C1 2.23478 1.10536 1.98043 1.29289 1.79289C1.48043 1.60536 1.73478 1.5 2 1.5H5V4C5 4.39783 5.15804 4.77936 5.43934 5.06066C5.72064 5.34196 6.10218 5.5 6.5 5.5H9V12.5C9 12.7652 8.89464 13.0196 8.70711 13.2071C8.51957 13.3946 8.26522 13.5 8 13.5H2C1.73478 13.5 1.48043 13.3946 1.29289 13.2071C1.10536 13.0196 1 12.7652 1 12.5V2.5ZM8.793 4.5H6.5C6.36739 4.5 6.24021 4.44732 6.14645 4.35355C6.05268 4.25979 6 4.13261 6 4V1.707L8.793 4.5Z" fill="currentColor"/>
</svg>
