<svg width="186" height="149" viewBox="0 0 186 149" fill="none" xmlns="http://www.w3.org/2000/svg">
<path d="M25.0144 119.384C25.8658 119.384 26.5561 118.694 26.5561 117.843C26.5561 116.991 25.8658 116.301 25.0144 116.301C24.163 116.301 23.4727 116.991 23.4727 117.843C23.4727 118.694 24.163 119.384 25.0144 119.384Z" fill="#80C0FB"/>
<path d="M124.986 54.9502C111.819 54.9502 98.4162 54.4155 85.8784 50.923C73.5765 47.5093 62.2816 40.8867 52.2136 33.2254C45.6223 28.2385 39.6285 24.2585 31.0709 24.8565C22.6987 25.3096 14.6927 28.4359 8.22925 33.7761C-2.65669 43.3091 -1.02056 60.9754 3.33683 73.34C9.88106 92.013 29.7966 105.023 46.7234 113.439C66.2774 123.208 87.7661 128.887 109.302 132.143C128.18 135.022 152.437 137.099 168.798 124.781C183.821 113.439 187.943 87.5766 184.261 70.1151C183.368 64.9567 180.621 60.3022 176.537 57.0266C165.982 49.3026 150.235 54.4625 138.373 54.714C133.968 54.8087 129.485 54.9188 124.986 54.9502Z" fill="#DEEFFF"/>
<path d="M97.5666 134.093C107.375 134.093 115.327 126.141 115.327 116.333C115.327 106.524 107.375 98.5723 97.5666 98.5723C87.7578 98.5723 79.8062 106.524 79.8062 116.333C79.8059 126.141 87.7578 134.093 97.5666 134.093Z" fill="#B3DAFF"/>
<path d="M79.2138 5.45416C80.1957 5.23518 81.2113 5.21181 82.2023 5.38521C83.1933 5.55862 84.1403 5.92586 84.9896 6.46502C85.8388 7.00448 86.5733 7.7061 87.1515 8.52934C87.7295 9.35288 88.1399 10.2821 88.3589 11.2639L91.197 23.9925L76.2114 27.3338L73.3733 14.6054C73.1537 13.6209 73.1309 12.6027 73.3058 11.609C73.4807 10.6156 73.85 9.66656 74.3927 8.81609C74.9354 7.96562 75.6406 7.23115 76.468 6.65411C77.2954 6.07737 78.2284 5.6693 79.2138 5.45416Z" fill="white" stroke="#EBEBEB" stroke-width="1.57313" stroke-linecap="round" stroke-linejoin="round"/>
<path d="M149.228 105.305L58.1599 125.598C57.5941 125.725 57.0053 125.702 56.451 125.532C55.8968 125.362 55.3967 125.05 54.9995 124.627C54.6027 124.206 54.3225 123.687 54.1869 123.123C54.0514 122.559 54.0653 121.97 54.2272 121.413L54.6048 120.108C57.751 108.954 60.4882 96.6684 57.9711 85.3418L52.5911 61.1786C48.0606 40.8698 60.2364 20.183 80.4352 15.1962C85.3607 13.9735 90.4807 13.7483 95.4947 14.534C100.508 15.3196 105.314 17.1002 109.63 19.7708C113.945 22.4415 117.682 25.9484 120.622 30.085C123.562 34.2217 125.645 38.9049 126.748 43.8582L132.301 68.8394C134.834 80.1659 142.479 90.1709 150.124 98.886L151.021 99.9084C151.384 100.346 151.63 100.87 151.735 101.428C151.839 101.987 151.801 102.564 151.622 103.104C151.443 103.643 151.128 104.129 150.71 104.514C150.291 104.899 149.78 105.172 149.228 105.305Z" fill="white" stroke="#EBEBEB" stroke-width="1.57313" stroke-linecap="round" stroke-linejoin="round"/>
<path d="M116.979 3.08347C117.83 3.08347 118.521 2.39309 118.521 1.54173C118.521 0.690377 117.83 0 116.979 0C116.128 0 115.437 0.690377 115.437 1.54173C115.437 2.39309 116.128 3.08347 116.979 3.08347Z" fill="#80C0FB"/>
<path d="M25.0144 119.384C25.8658 119.384 26.5561 118.694 26.5561 117.843C26.5561 116.991 25.8658 116.301 25.0144 116.301C24.163 116.301 23.4727 116.991 23.4727 117.843C23.4727 118.694 24.163 119.384 25.0144 119.384Z" fill="#80C0FB"/>
<path d="M159.579 38.7783V45.5427" stroke="#80C0FB" stroke-width="1.57313" stroke-linecap="round" stroke-linejoin="round"/>
<path d="M156.197 42.1602H162.961" stroke="#80C0FB" stroke-width="1.57313" stroke-linecap="round" stroke-linejoin="round"/>
<path d="M162.662 140.621V147.385" stroke="#80C0FB" stroke-width="1.57313" stroke-linecap="round" stroke-linejoin="round"/>
<path d="M159.28 144.004H166.044" stroke="#80C0FB" stroke-width="1.57313" stroke-linecap="round" stroke-linejoin="round"/>
<path d="M44.3953 13.1357V19.9001" stroke="#80C0FB" stroke-width="1.57313" stroke-linecap="round" stroke-linejoin="round"/>
<path d="M41.0129 16.5186H47.7773" stroke="#80C0FB" stroke-width="1.57313" stroke-linecap="round" stroke-linejoin="round"/>
<path d="M148.567 34.9395C148.562 39.7236 146.661 44.3106 143.278 47.6936C139.894 51.0765 135.307 52.9789 130.523 52.9831C129.935 52.9828 129.347 52.9514 128.761 52.8887L123.413 61.6195L121.745 50.6862C118.967 49.1388 116.645 46.8845 115.019 44.1514C113.392 41.4183 112.516 38.3041 112.481 35.1235C112.445 31.9433 113.251 28.8098 114.816 26.0412C116.383 23.2726 118.651 20.9668 121.395 19.3576C124.138 17.7484 127.259 16.8932 130.438 16.8781C133.619 16.8633 136.748 17.6895 139.506 19.273C142.265 20.8564 144.556 23.1409 146.146 25.8947C147.738 28.6486 148.573 31.7743 148.567 34.9549L148.567 34.9395Z" fill="white" stroke="#EBEBEB" stroke-width="1.57313" stroke-linecap="round" stroke-linejoin="round"/>
<path d="M122.815 36.7641C123.824 36.7641 124.64 35.9471 124.64 34.9392C124.64 33.9316 123.824 33.1143 122.815 33.1143C121.807 33.1143 120.99 33.9313 120.99 34.9392C120.99 35.9474 121.807 36.7641 122.815 36.7641Z" fill="#B3DAFF"/>
<path d="M130.523 36.7641C131.532 36.7641 132.348 35.9471 132.348 34.9392C132.348 33.9316 131.532 33.1143 130.523 33.1143C129.515 33.1143 128.698 33.9313 128.698 34.9392C128.699 35.9474 129.515 36.7641 130.523 36.7641Z" fill="#B3DAFF"/>
<path d="M138.232 36.7641C139.24 36.7641 140.057 35.9471 140.057 34.9392C140.057 33.9316 139.24 33.1143 138.232 33.1143C137.223 33.1143 136.407 33.9313 136.407 34.9392C136.407 35.9474 137.223 36.7641 138.232 36.7641Z" fill="#B3DAFF"/>
</svg>
