<svg width="182" height="123" viewBox="0 0 182 123" fill="none" xmlns="http://www.w3.org/2000/svg">
<path d="M107.062 52.83C95.8704 52.8967 84.5053 52.3759 73.8746 49.4244C63.244 46.473 53.8422 40.9039 45.2951 34.4001C39.6994 30.1667 34.6111 26.8012 27.3459 27.3085C20.2424 27.6819 13.4478 30.3322 7.96783 34.8673C-1.27371 42.9605 0.128402 57.9179 3.81438 68.4417C9.36994 84.2941 26.2774 95.2986 40.6341 102.47C57.2343 110.764 75.4638 115.585 93.7468 118.349C109.773 120.78 130.353 122.556 144.229 112.086C156.983 102.483 160.481 80.5278 157.356 65.7039C156.595 61.3256 154.265 57.3749 150.799 54.5925C141.838 48.0486 128.483 52.4157 118.414 52.6427C114.741 52.7232 110.881 52.8168 107.062 52.83Z" fill="#DEEFFF"/>
<path d="M52.4937 1V6.74264" stroke="#80C0FB" stroke-width="0.95843" stroke-linecap="round" stroke-linejoin="round"/>
<path d="M49.6223 3.87109H55.365" stroke="#80C0FB" stroke-width="0.95843" stroke-linecap="round" stroke-linejoin="round"/>
<path d="M161.443 115.466V121.208" stroke="#80C0FB" stroke-width="0.95843" stroke-linecap="round" stroke-linejoin="round"/>
<path d="M158.572 118.336H164.314" stroke="#80C0FB" stroke-width="0.95843" stroke-linecap="round" stroke-linejoin="round"/>
<path d="M9.10327 90.6645C9.82608 90.6645 10.4121 90.0785 10.4121 89.3557C10.4121 88.6329 9.82608 88.0469 9.10327 88.0469C8.38045 88.0469 7.79443 88.6329 7.79443 89.3557C7.79443 90.0785 8.38019 90.6645 9.10327 90.6645Z" fill="#80C0FB"/>
<path d="M120.537 6.93016C121.26 6.93016 121.846 6.34414 121.846 5.62133C121.846 4.89851 121.26 4.3125 120.537 4.3125C119.815 4.3125 119.228 4.89851 119.228 5.62133C119.228 6.34388 119.815 6.93016 120.537 6.93016Z" fill="#80C0FB"/>
<path d="M46.5104 16.5986H117.692C119.463 16.5986 121.162 17.3022 122.414 18.5544C123.666 19.8067 124.369 21.5051 124.369 23.2762V107.96C124.369 109.731 123.666 111.43 122.414 112.682C121.162 113.934 119.463 114.637 117.692 114.637H37.389C35.6179 114.637 33.9195 113.934 32.6672 112.682C31.415 111.429 30.7114 109.731 30.7114 107.96V32.5579L46.5104 16.5986Z" fill="white" stroke="#EBEBEB" stroke-width="1.12757" stroke-linecap="round" stroke-linejoin="round"/>
<path d="M124.049 57.8652H50.6504V115.452H124.049V57.8652Z" fill="#B3DAFF"/>
<path d="M30.7114 32.5576H43.6525C44.4118 32.5542 45.1385 32.2501 45.6742 31.712C46.21 31.1737 46.5107 30.4457 46.5107 29.6864V16.5986L30.7114 32.5576Z" fill="white" stroke="#EBEBEB" stroke-width="1.12757" stroke-linecap="round" stroke-linejoin="round"/>
<path d="M123.688 39.4756H51.091C48.2662 39.4756 45.9761 41.7657 45.9761 44.5905V60.1224C45.9761 62.9475 48.2662 65.2373 51.091 65.2373H123.688C126.513 65.2373 128.803 62.9475 128.803 60.1224V44.5905C128.804 41.7657 126.513 39.4756 123.688 39.4756Z" fill="white" stroke="#EBEBEB" stroke-width="1.12757" stroke-linecap="round" stroke-linejoin="round"/>
<path d="M60.0791 56.851C62.5425 56.851 64.5397 54.854 64.5397 52.3903C64.5397 49.9267 62.5427 47.9297 60.0791 47.9297C57.6154 47.9297 55.6184 49.9267 55.6184 52.3903C55.6184 54.854 57.6154 56.851 60.0791 56.851Z" fill="#B3DAFF"/>
<path d="M74.102 56.851C76.5654 56.851 78.5627 54.854 78.5627 52.3903C78.5627 49.9267 76.5657 47.9297 74.102 47.9297C71.6383 47.9297 69.6414 49.9267 69.6414 52.3903C69.6414 54.854 71.6383 56.851 74.102 56.851Z" fill="#B3DAFF"/>
<path d="M88.111 56.851C90.5744 56.851 92.5717 54.854 92.5717 52.3903C92.5717 49.9267 90.5747 47.9297 88.111 47.9297C85.6474 47.9297 83.6504 49.9267 83.6504 52.3903C83.6504 54.854 85.6476 56.851 88.111 56.851Z" fill="#B3DAFF"/>
<path d="M123.688 68.0283H51.091C48.2662 68.0283 45.9761 70.3182 45.9761 73.1433V88.6751C45.9761 91.5 48.2662 93.7901 51.091 93.7901H123.688C126.513 93.7901 128.803 91.5 128.803 88.6751V73.1433C128.804 70.3182 126.513 68.0283 123.688 68.0283Z" fill="white" stroke="#EBEBEB" stroke-width="1.12757" stroke-linecap="round" stroke-linejoin="round"/>
<path d="M60.0791 85.4174C62.5425 85.4174 64.5397 83.4204 64.5397 80.9567C64.5397 78.4933 62.5427 76.4961 60.0791 76.4961C57.6154 76.4961 55.6184 78.4931 55.6184 80.9567C55.6184 83.4202 57.6154 85.4174 60.0791 85.4174Z" fill="#B3DAFF"/>
<path d="M74.102 85.4174C76.5654 85.4174 78.5627 83.4204 78.5627 80.9567C78.5627 78.4933 76.5657 76.4961 74.102 76.4961C71.6383 76.4961 69.6414 78.4931 69.6414 80.9567C69.6414 83.4202 71.6383 85.4174 74.102 85.4174Z" fill="#B3DAFF"/>
<path d="M88.111 85.4174C90.5744 85.4174 92.5717 83.4204 92.5717 80.9567C92.5717 78.4933 90.5747 76.4961 88.111 76.4961C85.6474 76.4961 83.6504 78.4931 83.6504 80.9567C83.6507 83.4202 85.6476 85.4174 88.111 85.4174Z" fill="#B3DAFF"/>
<path d="M123.688 96.5947H51.091C48.2662 96.5947 45.9761 98.8846 45.9761 101.71V117.242C45.9761 120.066 48.2662 122.356 51.091 122.356H123.688C126.513 122.356 128.803 120.066 128.803 117.242V101.71C128.804 98.8846 126.513 96.5947 123.688 96.5947Z" fill="white" stroke="#EBEBEB" stroke-width="1.12757" stroke-linecap="round" stroke-linejoin="round"/>
<path d="M60.0791 113.97C62.5425 113.97 64.5397 111.974 64.5397 109.509C64.5397 107.046 62.5427 105.049 60.0791 105.049C57.6154 105.049 55.6184 107.046 55.6184 109.509C55.6184 111.974 57.6154 113.97 60.0791 113.97Z" fill="#B3DAFF"/>
<path d="M74.102 113.97C76.5654 113.97 78.5627 111.974 78.5627 109.509C78.5627 107.046 76.5657 105.049 74.102 105.049C71.6383 105.049 69.6414 107.046 69.6414 109.509C69.6414 111.974 71.6383 113.97 74.102 113.97Z" fill="#B3DAFF"/>
<path d="M88.111 113.97C90.5744 113.97 92.5717 111.974 92.5717 109.509C92.5717 107.046 90.5747 105.049 88.111 105.049C85.6474 105.049 83.6504 107.046 83.6504 109.509C83.6507 111.974 85.6476 113.97 88.111 113.97Z" fill="#B3DAFF"/>
<path d="M130.259 72.0082C145.549 72.0082 157.944 59.6132 157.944 44.3234C157.944 29.0336 145.549 16.6387 130.259 16.6387C114.969 16.6387 102.574 29.0336 102.574 44.3234C102.574 59.6132 114.969 72.0082 130.259 72.0082Z" fill="white" stroke="#EBEBEB" stroke-width="1.12757" stroke-linecap="round" stroke-linejoin="round"/>
<path d="M149.918 64.4092L157.29 71.7811" stroke="#EBEBEB" stroke-width="1.12757" stroke-linecap="round" stroke-linejoin="round"/>
<path d="M156.466 68.2027L154.178 70.5968C153.148 71.6738 153.186 73.3815 154.263 74.411L174.15 93.4215C175.227 94.451 176.935 94.4124 177.963 93.3355L180.252 90.9414C181.282 89.8645 181.243 88.1567 180.167 87.1272L160.28 68.1167C159.203 67.0872 157.495 67.1258 156.466 68.2027Z" fill="white" stroke="#EBEBEB" stroke-width="1.12757" stroke-linecap="round" stroke-linejoin="round"/>
</svg>
