<svg width="12" height="13" viewBox="0 0 12 13" fill="none" xmlns="http://www.w3.org/2000/svg">
<path d="M11.3952 6.49977H4.1881M1.64418 6.49977H0.603516M1.64418 6.49977C1.64418 6.16251 1.77816 5.83905 2.01664 5.60057C2.25513 5.36209 2.57858 5.22811 2.91585 5.22811C3.25312 5.22811 3.57657 5.36209 3.81505 5.60057C4.05354 5.83905 4.18752 6.16251 4.18752 6.49977C4.18752 6.83704 4.05354 7.16049 3.81505 7.39898C3.57657 7.63746 3.25312 7.77144 2.91585 7.77144C2.57858 7.77144 2.25513 7.63746 2.01664 7.39898C1.77816 7.16049 1.64418 6.83704 1.64418 6.49977ZM11.3952 10.3539H8.04218M8.04218 10.3539C8.04218 10.6912 7.90788 11.015 7.66934 11.2536C7.4308 11.4921 7.10728 11.6261 6.76993 11.6261C6.43267 11.6261 6.10921 11.4915 5.87073 11.2531C5.63224 11.0146 5.49827 10.6911 5.49827 10.3539M8.04218 10.3539C8.04218 10.0165 7.90788 9.69328 7.66934 9.45474C7.4308 9.2162 7.10728 9.08219 6.76993 9.08219C6.43267 9.08219 6.10921 9.21617 5.87073 9.45465C5.63224 9.69314 5.49827 10.0166 5.49827 10.3539M5.49827 10.3539H0.603516M11.3952 2.64569H9.58393M7.04002 2.64569H0.603516M7.04002 2.64569C7.04002 2.30842 7.17399 1.98497 7.41248 1.74649C7.65096 1.508 7.97442 1.37402 8.31168 1.37402C8.47868 1.37402 8.64404 1.40692 8.79833 1.47082C8.95261 1.53473 9.0928 1.6284 9.21089 1.74649C9.32897 1.86457 9.42264 2.00476 9.48655 2.15904C9.55046 2.31333 9.58335 2.47869 9.58335 2.64569C9.58335 2.81269 9.55046 2.97805 9.48655 3.13234C9.42264 3.28662 9.32897 3.42681 9.21089 3.54489C9.0928 3.66298 8.95261 3.75665 8.79833 3.82056C8.64404 3.88446 8.47868 3.91736 8.31168 3.91736C7.97442 3.91736 7.65096 3.78338 7.41248 3.54489C7.17399 3.30641 7.04002 2.98296 7.04002 2.64569Z" stroke="black" stroke-width="0.875" stroke-miterlimit="10" stroke-linecap="round"/>
</svg>
