<svg width="20" height="22" viewBox="0 0 20 22" fill="none" xmlns="http://www.w3.org/2000/svg">
<path d="M1.66699 21.6669C1.11471 21.6669 0.666992 21.2192 0.666992 20.6669V8.16471C0.666992 7.85118 0.814046 7.55579 1.06422 7.3668L9.39756 1.07156C9.75424 0.802114 10.2464 0.802114 10.6031 1.07156L18.9364 7.3668C19.1866 7.55579 19.3337 7.85118 19.3337 8.16471V20.6669C19.3337 21.2192 18.8859 21.6669 18.3337 21.6669H13.411C12.8587 21.6669 12.411 21.2192 12.411 20.6669V14.1549C12.411 13.6026 11.9633 13.1549 11.411 13.1549H8.58966C8.03737 13.1549 7.58966 13.6026 7.58966 14.1549V20.6669C7.58966 21.2192 7.14194 21.6669 6.58966 21.6669H1.66699Z" fill="#0069CA"/>
</svg>
