<svg width="21" height="22" viewBox="0 0 21 22" fill="none" xmlns="http://www.w3.org/2000/svg">
<path d="M13 6.3252H13.01M10.5 19.3252H4C3.20435 19.3252 2.44129 19.0091 1.87868 18.4465C1.31607 17.8839 1 17.1208 1 16.3252V4.3252C1 3.52955 1.31607 2.76648 1.87868 2.20388C2.44129 1.64127 3.20435 1.3252 4 1.3252H16C16.7956 1.3252 17.5587 1.64127 18.1213 2.20388C18.6839 2.76648 19 3.52955 19 4.3252V10.8252M1 14.3252L6 9.32519C6.928 8.43219 8.072 8.43219 9 9.32519L12.5 12.8252M12 12.3252L13 11.3252C13.679 10.6722 14.473 10.4962 15.214 10.7992M17 20.3252V14.3252M17 14.3252L20 17.3252M17 14.3252L14 17.3252" stroke="#fff" stroke-width="2" stroke-linecap="round" stroke-linejoin="round"/>
</svg>
