<svg width="22" height="15" viewBox="0 0 22 15" fill="none" xmlns="http://www.w3.org/2000/svg">
<path d="M5 5.3252V5.3352M9 5.3252V5.3352M13 5.3252V5.3352M17 5.3252V5.3352M5 9.3252V9.3352M17 9.3252V9.3352M9 9.3252L13 9.3352M1 3.3252C1 2.79476 1.21071 2.28605 1.58579 1.91098C1.96086 1.53591 2.46957 1.3252 3 1.3252H19C19.5304 1.3252 20.0391 1.53591 20.4142 1.91098C20.7893 2.28605 21 2.79476 21 3.3252V11.3252C21 11.8556 20.7893 12.3643 20.4142 12.7394C20.0391 13.1145 19.5304 13.3252 19 13.3252H3C2.46957 13.3252 1.96086 13.1145 1.58579 12.7394C1.21071 12.3643 1 11.8556 1 11.3252V3.3252Z" stroke="#fff" stroke-width="2" stroke-linecap="round" stroke-linejoin="round"/>
</svg>
