<svg width="20" height="20" viewBox="0 0 20 20" fill="none" xmlns="http://www.w3.org/2000/svg">
<g clip-path="url(#clip0_1614_3952)">
<path d="M7.5 9.16675C7.5 9.82979 7.76339 10.4657 8.23223 10.9345C8.70107 11.4034 9.33696 11.6667 10 11.6667C10.663 11.6667 11.2989 11.4034 11.7678 10.9345C12.2366 10.4657 12.5 9.82979 12.5 9.16675C12.5 8.50371 12.2366 7.86782 11.7678 7.39898C11.2989 6.93014 10.663 6.66675 10 6.66675C9.33696 6.66675 8.70107 6.93014 8.23223 7.39898C7.76339 7.86782 7.5 8.50371 7.5 9.16675Z" stroke="#0069CA" stroke-width="1.25" stroke-linecap="round" stroke-linejoin="round"/>
<path d="M14.7142 13.8806L11.1784 17.4164C10.8659 17.7286 10.4422 17.904 10.0005 17.904C9.55872 17.904 9.13506 17.7286 8.82254 17.4164L5.28588 13.8806C4.35356 12.9482 3.71866 11.7603 3.46145 10.4671C3.20424 9.17395 3.33629 7.83352 3.84088 6.61536C4.34547 5.39721 5.19996 4.35604 6.29628 3.62351C7.3926 2.89098 8.68152 2.5 10 2.5C11.3186 2.5 12.6075 2.89098 13.7038 3.62351C14.8001 4.35604 15.6546 5.39721 16.1592 6.61536C16.6638 7.83352 16.7958 9.17395 16.5386 10.4671C16.2814 11.7603 15.6465 12.9482 14.7142 13.8806Z" stroke="#0069CA" stroke-width="1.25" stroke-linecap="round" stroke-linejoin="round"/>
</g>
<defs>
<clipPath id="clip0_1614_3952">
<rect width="20" height="20" fill="white"/>
</clipPath>
</defs>
</svg>
