<svg width="20" height="21" viewBox="0 0 20 21" fill="none" xmlns="http://www.w3.org/2000/svg">
<path d="M10 1.32532C17.2 1.32532 19 3.12532 19 10.3253C19 17.5253 17.2 19.3253 10 19.3253C2.8 19.3253 1 17.5253 1 10.3253C1 3.12532 2.8 1.32532 10 1.32532Z" stroke="#598ef7" stroke-width="2" stroke-linecap="round" stroke-linejoin="round"/>
<path d="M6.863 15.2473C8 14.8253 8.5 14.3253 10 14.3253C11.5 14.3253 12 14.8253 13.138 15.2473C13.851 15.5113 14.654 15.1453 14.916 14.4753C15.042 14.1553 15.026 13.8023 14.872 13.4923L11.164 6.01832C10.867 5.42032 10.106 5.15932 9.464 5.43532C9.19241 5.54905 8.97016 5.75571 8.837 6.01832L5.128 13.4923C4.807 14.1403 5.111 14.9073 5.807 15.2063C6.139 15.3493 6.522 15.3733 6.863 15.2463V15.2473Z" stroke="#598ef7" stroke-width="2" stroke-linecap="round" stroke-linejoin="round"/>
</svg>
