<svg width="14" height="19" viewBox="0 0 14 19" fill="none" xmlns="http://www.w3.org/2000/svg">
<path d="M6.99976 11.9998C6.16642 11.9998 5.45809 11.7081 4.87476 11.1248C4.29142 10.5414 3.99976 9.83309 3.99976 8.99975V2.99976C3.99976 2.16642 4.29142 1.45809 4.87476 0.874756C5.45809 0.291423 6.16642 -0.000244141 6.99976 -0.000244141C7.83309 -0.000244141 8.54142 0.291423 9.12476 0.874756C9.70809 1.45809 9.99976 2.16642 9.99976 2.99976V8.99975C9.99976 9.83309 9.70809 10.5414 9.12476 11.1248C8.54142 11.7081 7.83309 11.9998 6.99976 11.9998ZM5.99976 18.9998V15.9248C4.26642 15.6914 2.83309 14.9164 1.69976 13.5998C0.566422 12.2831 -0.000244141 10.7498 -0.000244141 8.99975H1.99976C1.99976 10.3831 2.48742 11.5624 3.46276 12.5378C4.43809 13.5131 5.61709 14.0004 6.99976 13.9998C8.38242 13.9991 9.56176 13.5114 10.5378 12.5368C11.5138 11.5621 12.0011 10.3831 11.9998 8.99975H13.9998C13.9998 10.7498 13.4331 12.2831 12.2998 13.5998C11.1664 14.9164 9.73309 15.6914 7.99976 15.9248V18.9998H5.99976Z" fill="#0069CA"/>
</svg>
