<svg width="16" height="22" viewBox="0 0 16 22" fill="none" xmlns="http://www.w3.org/2000/svg">
<path d="M1 9.3252C1 11.1817 1.7375 12.9622 3.05025 14.2749C4.36301 15.5877 6.14348 16.3252 8 16.3252M8 16.3252C9.85652 16.3252 11.637 15.5877 12.9497 14.2749C14.2625 12.9622 15 11.1817 15 9.3252M8 16.3252V20.3252M4 20.3252H12M5 4.3252C5 3.52955 5.31607 2.76648 5.87868 2.20388C6.44129 1.64127 7.20435 1.3252 8 1.3252C8.79565 1.3252 9.55871 1.64127 10.1213 2.20388C10.6839 2.76648 11 3.52955 11 4.3252V9.3252C11 10.1208 10.6839 10.8839 10.1213 11.4465C9.55871 12.0091 8.79565 12.3252 8 12.3252C7.20435 12.3252 6.44129 12.0091 5.87868 11.4465C5.31607 10.8839 5 10.1208 5 9.3252V4.3252Z" stroke="#fff" stroke-width="2" stroke-linecap="round" stroke-linejoin="round"/>
</svg>
