<svg width="20" height="25" viewBox="0 0 20 25" fill="none" xmlns="http://www.w3.org/2000/svg">
<path d="M1.33342 21.0267C1.14409 21.0267 0.985868 20.9622 0.858757 20.8333C0.731646 20.7044 0.667646 20.5458 0.666757 20.3573C0.665868 20.1689 0.729868 20.0107 0.858757 19.8827C0.987646 19.7547 1.14587 19.6911 1.33342 19.692H2.82142V9.128C2.82142 7.38578 3.37253 5.85378 4.47476 4.532C5.57698 3.21022 6.97431 2.38667 8.66676 2.06133V1.33333C8.66676 0.962667 8.79609 0.648 9.05476 0.389333C9.31342 0.129778 9.62765 0 9.99742 0C10.3672 0 10.6823 0.129778 10.9428 0.389333C11.2032 0.648889 11.3334 0.963556 11.3334 1.33333V2.06133C13.0259 2.38578 14.4232 3.20933 15.5254 4.532C16.6276 5.85467 17.1788 7.38667 17.1788 9.128V19.692H18.6668C18.8561 19.692 19.0143 19.756 19.1414 19.884C19.2694 20.012 19.3334 20.1707 19.3334 20.36C19.3334 20.5493 19.2694 20.7076 19.1414 20.8347C19.0134 20.9618 18.8552 21.0253 18.6668 21.0253L1.33342 21.0267ZM9.99609 24.5133C9.40231 24.5133 8.89565 24.3022 8.47609 23.88C8.05654 23.4578 7.84676 22.9511 7.84676 22.36H12.1534C12.1534 22.9556 11.9423 23.4631 11.5201 23.8827C11.097 24.3022 10.589 24.5133 9.99609 24.5133Z" fill="#0069CA"/>
</svg>
