<svg width="20" height="26" viewBox="0 0 20 26" fill="none" xmlns="http://www.w3.org/2000/svg">
<path d="M0.516748 22.0267V22.1767L0.666759 22.1767L19.3334 22.1753L19.4834 22.1753V22.0253V20.692V20.542H19.3334H17.3287V10.128C17.3287 8.35114 16.7656 6.78504 15.6406 5.43594C14.5427 4.11933 13.1553 3.28588 11.4834 2.93837V1V0.85H11.3334H8.66675H8.51675V1V2.93831C6.84482 3.28497 5.45745 4.118 4.35955 5.4346C3.23454 6.7837 2.67141 8.34981 2.67141 10.1267V20.5433H0.666748H0.516748V20.6933V22.0267ZM7.84675 23.21H7.69675V23.36C7.69675 23.991 7.92242 24.5356 8.36968 24.9857C8.81732 25.4362 9.36225 25.6633 9.99608 25.6633C10.629 25.6633 11.1748 25.4363 11.6257 24.9892L11.6258 24.9891C12.0764 24.5413 12.3034 23.9955 12.3034 23.36V23.21H12.1534H7.84675ZM4.30475 10.128V10.1279C4.30388 8.54518 4.85719 7.20396 5.9674 6.09548C7.07774 4.98688 8.41912 4.43353 10.0002 4.43267C11.5811 4.4318 12.9224 4.98508 14.0327 6.0954C15.143 7.20574 15.6967 8.54706 15.6967 10.128V20.5433H4.30475V10.128Z" fill="#1D1D1D" stroke="#1D1D1D" stroke-width="0.3"/>
</svg>
