<svg width="38" height="42" viewBox="0 0 38 42" fill="none" xmlns="http://www.w3.org/2000/svg">
<path d="M19.0001 42C21.5178 42 23.6859 40.4792 24.6372 38.3086H13.363C14.3144 40.4792 16.4825 42 19.0001 42Z" fill="currentColor"/>
<path d="M31.7149 20.3324V17.6367C31.7149 11.9091 27.9078 7.05461 22.6915 5.46902V3.69141C22.6915 1.65596 21.0355 0 19.0001 0C16.9647 0 15.3087 1.65596 15.3087 3.69141V5.46902C10.0923 7.05461 6.28525 11.9091 6.28525 17.6367V20.3324C6.28525 25.3636 4.36753 30.1342 0.885381 33.7655C0.544131 34.1214 0.448236 34.6465 0.641666 35.0999C0.835096 35.5534 1.28053 35.8477 1.77353 35.8477H36.2267C36.7197 35.8477 37.165 35.5534 37.3584 35.0999C37.5519 34.6465 37.456 34.1214 37.1148 33.7655C33.6327 30.1342 31.7149 25.3635 31.7149 20.3324ZM20.2306 4.98159C19.8256 4.94255 19.4152 4.92188 19.0001 4.92188C18.585 4.92188 18.1746 4.94255 17.7696 4.98159V3.69141C17.7696 3.01293 18.3216 2.46094 19.0001 2.46094C19.6786 2.46094 20.2306 3.01293 20.2306 3.69141V4.98159Z" fill="currentColor"/>
<path d="M34.9962 17.6366C34.9962 18.3162 35.5471 18.8671 36.2267 18.8671C36.9062 18.8671 37.4572 18.3162 37.4572 17.6366C37.4572 12.7066 35.5373 8.07155 32.0512 4.58547C31.5708 4.10501 30.7916 4.10493 30.3111 4.58547C29.8305 5.06601 29.8305 5.84506 30.3111 6.3256C33.3324 9.34689 34.9962 13.3639 34.9962 17.6366Z" fill="currentColor"/>
<path d="M1.77344 18.8673C2.45298 18.8673 3.00391 18.3164 3.00391 17.6368C3.00391 13.3642 4.66783 9.34717 7.68904 6.32587C8.16958 5.84534 8.16958 5.06629 7.68904 4.58575C7.20858 4.10521 6.42945 4.10521 5.94891 4.58575C2.46283 8.07183 0.542969 12.7068 0.542969 17.6368C0.542969 18.3164 1.09389 18.8673 1.77344 18.8673Z" fill="currentColor"/>
</svg>
