<svg width="16" height="16" viewBox="0 0 16 16" fill="none" xmlns="http://www.w3.org/2000/svg">
<path d="M2.7763 10.8991C2.6483 10.8991 2.52055 10.8504 2.4228 10.7526C2.22755 10.5574 2.22755 10.2409 2.4228 10.0456L10.2363 2.23213C10.4313 2.03688 10.7481 2.03688 10.9433 2.23213C11.1386 2.42738 11.1386 2.74388 10.9433 2.93913L3.1298 10.7526C3.0323 10.8501 2.9043 10.8991 2.7763 10.8991Z" fill="#0069CA"/>
<path d="M2.00416 14.5C1.96941 14.5 1.93416 14.4963 1.89891 14.4888C1.62891 14.4308 1.45691 14.165 1.51491 13.895L2.28741 10.2943C2.34541 10.0243 2.61241 9.85277 2.88116 9.91027C3.15116 9.96827 3.32316 10.234 3.26516 10.504L2.49266 14.1048C2.44241 14.3395 2.23491 14.5 2.00416 14.5Z" fill="#0069CA"/>
<path d="M5.60443 13.7275C5.47643 13.7275 5.34868 13.6787 5.25093 13.581C5.05568 13.3857 5.05568 13.0692 5.25093 12.874L13.0644 5.06074C13.2594 4.86549 13.5762 4.86549 13.7714 5.06074C13.9667 5.25599 13.9667 5.57249 13.7714 5.76774L5.95818 13.581C5.86043 13.6787 5.73243 13.7275 5.60443 13.7275Z" fill="#0069CA"/>
<path d="M2.00334 14.5001C1.77259 14.5001 1.56534 14.3396 1.51484 14.1048C1.45709 13.8348 1.62884 13.5691 1.89884 13.5111L5.49959 12.7386C5.76984 12.6813 6.03559 12.8528 6.09334 13.1226C6.15109 13.3926 5.97934 13.6583 5.70934 13.7163L2.10859 14.4888C2.07334 14.4966 2.03809 14.5001 2.00334 14.5001Z" fill="#0069CA"/>
<path d="M12.0037 7.32819C11.8757 7.32819 11.7477 7.27944 11.6502 7.18169L8.82197 4.35344C8.62672 4.15819 8.62672 3.84169 8.82197 3.64644C9.01697 3.45119 9.33398 3.45119 9.52898 3.64644L12.3572 6.47469C12.5525 6.66994 12.5525 6.98644 12.3572 7.18169C12.2597 7.27944 12.1317 7.32819 12.0037 7.32819Z" fill="#0069CA"/>
<path d="M13.418 5.91431C13.29 5.91431 13.162 5.86556 13.0643 5.76781C12.869 5.57256 12.869 5.25606 13.0643 5.06056C13.3425 4.78231 13.4958 4.40556 13.4958 4.00006C13.4958 3.59456 13.3425 3.21781 13.0643 2.93956C12.7858 2.66106 12.409 2.50781 12.0035 2.50781C11.598 2.50781 11.2213 2.66106 10.943 2.93956C10.748 3.13481 10.4315 3.13506 10.2358 2.93956C10.0405 2.74431 10.0405 2.42781 10.2358 2.23231C10.7028 1.76506 11.3305 1.50781 12.0035 1.50781C12.6763 1.50781 13.3043 1.76506 13.7713 2.23231C14.2385 2.69931 14.4958 3.32706 14.4958 4.00006C14.4958 4.67306 14.2385 5.30081 13.7713 5.76781C13.674 5.86531 13.546 5.91431 13.418 5.91431Z" fill="#0069CA"/>
</svg>
