<svg width="66" height="65" viewBox="0 0 66 65" fill="none" xmlns="http://www.w3.org/2000/svg">
<path d="M55.5873 0.227173H10.4055C7.83767 0.227173 5.37506 1.24722 3.55937 3.06291C1.74368 4.8786 0.723633 7.34121 0.723633 9.90899V55.0908C0.723633 57.6586 1.74368 60.1212 3.55937 61.9369C5.37506 63.7526 7.83767 64.7726 10.4055 64.7726H55.5873C58.155 64.7726 60.6177 63.7526 62.4333 61.9369C64.249 60.1212 65.2691 57.6586 65.2691 55.0908V9.90899C65.2691 7.34121 64.249 4.8786 62.4333 3.06291C60.6177 1.24722 58.155 0.227173 55.5873 0.227173ZM49.1327 35.7272H36.2236V48.6363C36.2236 49.4922 35.8836 50.3131 35.2784 50.9183C34.6732 51.5235 33.8523 51.8635 32.9964 51.8635C32.1404 51.8635 31.3196 51.5235 30.7143 50.9183C30.1091 50.3131 29.7691 49.4922 29.7691 48.6363V35.7272H16.86C16.0041 35.7272 15.1832 35.3872 14.578 34.7819C13.9727 34.1767 13.6327 33.3558 13.6327 32.4999C13.6327 31.644 13.9727 30.8231 14.578 30.2179C15.1832 29.6126 16.0041 29.2726 16.86 29.2726H29.7691V16.3635C29.7691 15.5076 30.1091 14.6867 30.7143 14.0815C31.3196 13.4763 32.1404 13.1363 32.9964 13.1363C33.8523 13.1363 34.6732 13.4763 35.2784 14.0815C35.8836 14.6867 36.2236 15.5076 36.2236 16.3635V29.2726H49.1327C49.9886 29.2726 50.8095 29.6126 51.4147 30.2179C52.02 30.8231 52.36 31.644 52.36 32.4999C52.36 33.3558 52.02 34.1767 51.4147 34.7819C50.8095 35.3872 49.9886 35.7272 49.1327 35.7272Z" fill="currentColor"/>
</svg>
