<svg width="34" height="44" viewBox="0 0 34 44" fill="none" xmlns="http://www.w3.org/2000/svg">
<path d="M30.3888 41.4962L23.7268 17.3339L17.8325 15.894V24.0184L20.2396 41.9993C20.3235 42.6263 20.8585 43.0943 21.4909 43.0943H29.1716C30.0055 43.0943 30.6104 42.3001 30.3888 41.4962Z" fill="currentColor"/>
<path d="M15.2623 15.8943L9.36517 17.3348L2.69444 41.4961C2.47249 42.3001 3.07733 43.0946 3.91144 43.0946H11.6038C12.2363 43.0946 12.7712 42.6265 12.8552 41.9995L15.2623 24.0189V15.8943Z" fill="currentColor"/>
<path d="M7.78784 0L16.5471 8.75947L25.3066 0H7.78784Z" fill="currentColor"/>
<path d="M15.2627 11.0459L4.37591 0.159223C4.24124 0.0223646 4.03637 -0.0319244 3.85112 0.018577C3.66401 0.0686575 3.51671 0.216037 3.46655 0.402893L0.0514758 14.5625C-0.234867 15.7497 0.837361 16.8189 2.02381 16.529L15.2627 13.2949V11.0459Z" fill="currentColor"/>
<path d="M33.043 14.5625L29.6278 0.402857C29.5777 0.216002 29.4304 0.0686221 29.2432 0.0185416C29.058 -0.0318756 28.8531 0.0223292 28.7185 0.159188L17.8318 11.0459V13.295L31.0706 16.5291C32.2571 16.8189 33.3293 15.7498 33.043 14.5625Z" fill="currentColor"/>
</svg>
