<svg width="20" height="20" viewBox="0 0 20 20" fill="none" xmlns="http://www.w3.org/2000/svg">
<path d="M10 18.3334C5.3975 18.3334 1.66666 14.6026 1.66666 10.0001C1.66666 5.39758 5.3975 1.66675 10 1.66675C14.6025 1.66675 18.3333 5.39758 18.3333 10.0001C18.3333 14.6026 14.6025 18.3334 10 18.3334ZM10 16.6667C11.7681 16.6667 13.4638 15.9643 14.7141 14.7142C15.9642 13.4639 16.6667 11.7682 16.6667 10.0001C16.6667 8.23197 15.9642 6.53628 14.7141 5.28604C13.4638 4.03579 11.7681 3.33341 10 3.33341C8.23189 3.33341 6.5362 4.03579 5.28596 5.28604C4.03571 6.53628 3.33333 8.23197 3.33333 10.0001C3.33333 11.7682 4.03571 13.4639 5.28596 14.7142C6.5362 15.9643 8.23189 16.6667 10 16.6667ZM10 14.1667C8.89491 14.1667 7.83512 13.7277 7.05372 12.9463C6.27231 12.165 5.83333 11.1052 5.83333 10.0001C5.83333 8.895 6.27231 7.83521 7.05372 7.05381C7.83512 6.2724 8.89491 5.83342 10 5.83342C11.1051 5.83342 12.1649 6.2724 12.9462 7.05381C13.7277 7.83521 14.1667 8.895 14.1667 10.0001C14.1667 11.1052 13.7277 12.165 12.9462 12.9463C12.1649 13.7277 11.1051 14.1667 10 14.1667Z" fill="#0069CA"/>
</svg>
