<svg width="20" height="20" viewBox="0 0 20 20" fill="none" xmlns="http://www.w3.org/2000/svg">
<path d="M10 18.3334C5.39751 18.3334 1.66667 14.6026 1.66667 10.0001C1.66667 5.39758 5.39751 1.66675 10 1.66675C14.6025 1.66675 18.3333 5.39758 18.3333 10.0001C18.3333 14.6026 14.6025 18.3334 10 18.3334ZM10 16.6667C11.7681 16.6667 13.4638 15.9643 14.7141 14.7142C15.9643 13.4639 16.6667 11.7682 16.6667 10.0001C16.6667 8.23197 15.9643 6.53628 14.7141 5.28604C13.4638 4.03579 11.7681 3.33341 10 3.33341C8.2319 3.33341 6.53621 4.03579 5.28596 5.28604C4.03571 6.53628 3.33334 8.23197 3.33334 10.0001C3.33334 11.7682 4.03571 13.4639 5.28596 14.7142C6.53621 15.9643 8.2319 16.6667 10 16.6667Z" fill="#777777"/>
</svg>
