<svg width="20" height="21" viewBox="0 0 20 21" fill="none" xmlns="http://www.w3.org/2000/svg">
<path d="M1 1.3252L19 19.3252M9 9.3252C8.73478 9.3252 8.48043 9.21984 8.29289 9.0323C8.10536 8.84477 8 8.59041 8 8.3252M8 4.3572V2.3252C8 2.05998 8.10536 1.80562 8.29289 1.61809C8.48043 1.43055 8.73478 1.3252 9 1.3252H18C18.2652 1.3252 18.5196 1.43055 18.7071 1.61809C18.8946 1.80562 19 2.05998 19 2.3252V12.3252L16 9.3252H13M12 13.3252V15.3252C12 15.5904 11.8946 15.8448 11.7071 16.0323C11.5196 16.2198 11.2652 16.3252 11 16.3252H4L1 19.3252V9.3252C1 9.05998 1.10536 8.80563 1.29289 8.61809C1.48043 8.43055 1.73478 8.3252 2 8.3252H4" stroke="#DE3163" stroke-width="2" stroke-linecap="round" stroke-linejoin="round"/>
</svg>
