<svg width="16" height="16" viewBox="0 0 16 16" fill="none" xmlns="http://www.w3.org/2000/svg">
<path d="M15.5 1.125V4.25C15.5 4.41576 15.4342 4.57473 15.3169 4.69194C15.1997 4.80915 15.0408 4.875 14.875 4.875C14.7092 4.875 14.5503 4.80915 14.4331 4.69194C14.3158 4.57473 14.25 4.41576 14.25 4.25V1.75H11.75C11.5842 1.75 11.4253 1.68415 11.3081 1.56694C11.1908 1.44973 11.125 1.29076 11.125 1.125C11.125 0.95924 11.1908 0.800269 11.3081 0.683058C11.4253 0.565848 11.5842 0.5 11.75 0.5H14.875C15.0408 0.5 15.1997 0.565848 15.3169 0.683058C15.4342 0.800269 15.5 0.95924 15.5 1.125ZM4.25 14.25H1.75V11.75C1.75 11.5842 1.68415 11.4253 1.56694 11.3081C1.44973 11.1908 1.29076 11.125 1.125 11.125C0.95924 11.125 0.800269 11.1908 0.683058 11.3081C0.565848 11.4253 0.5 11.5842 0.5 11.75V14.875C0.5 15.0408 0.565848 15.1997 0.683058 15.3169C0.800269 15.4342 0.95924 15.5 1.125 15.5H4.25C4.41576 15.5 4.57473 15.4342 4.69194 15.3169C4.80915 15.1997 4.875 15.0408 4.875 14.875C4.875 14.7092 4.80915 14.5503 4.69194 14.4331C4.57473 14.3158 4.41576 14.25 4.25 14.25ZM14.875 11.125C14.7092 11.125 14.5503 11.1908 14.4331 11.3081C14.3158 11.4253 14.25 11.5842 14.25 11.75V14.25H11.75C11.5842 14.25 11.4253 14.3158 11.3081 14.4331C11.1908 14.5503 11.125 14.7092 11.125 14.875C11.125 15.0408 11.1908 15.1997 11.3081 15.3169C11.4253 15.4342 11.5842 15.5 11.75 15.5H14.875C15.0408 15.5 15.1997 15.4342 15.3169 15.3169C15.4342 15.1997 15.5 15.0408 15.5 14.875V11.75C15.5 11.5842 15.4342 11.4253 15.3169 11.3081C15.1997 11.1908 15.0408 11.125 14.875 11.125ZM1.125 4.875C1.29076 4.875 1.44973 4.80915 1.56694 4.69194C1.68415 4.57473 1.75 4.41576 1.75 4.25V1.75H4.25C4.41576 1.75 4.57473 1.68415 4.69194 1.56694C4.80915 1.44973 4.875 1.29076 4.875 1.125C4.875 0.95924 4.80915 0.800269 4.69194 0.683058C4.57473 0.565848 4.41576 0.5 4.25 0.5H1.125C0.95924 0.5 0.800269 0.565848 0.683058 0.683058C0.565848 0.800269 0.5 0.95924 0.5 1.125V4.25C0.5 4.41576 0.565848 4.57473 0.683058 4.69194C0.800269 4.80915 0.95924 4.875 1.125 4.875ZM4.25 3.625H11.75C11.9158 3.625 12.0747 3.69085 12.1919 3.80806C12.3092 3.92527 12.375 4.08424 12.375 4.25V11.75C12.375 11.9158 12.3092 12.0747 12.1919 12.1919C12.0747 12.3092 11.9158 12.375 11.75 12.375H4.25C4.08424 12.375 3.92527 12.3092 3.80806 12.1919C3.69085 12.0747 3.625 11.9158 3.625 11.75V4.25C3.625 4.08424 3.69085 3.92527 3.80806 3.80806C3.92527 3.69085 4.08424 3.625 4.25 3.625ZM4.875 11.125H11.125V4.875H4.875V11.125Z" fill="black"/>
</svg>
