<svg width="20" height="21" viewBox="0 0 20 21" fill="none" xmlns="http://www.w3.org/2000/svg">
<path d="M7 13.3252L13 7.3252M13 7.3252H9M13 7.3252V11.3252M1 10.3252C1 11.5071 1.23279 12.6774 1.68508 13.7693C2.13738 14.8613 2.80031 15.8534 3.63604 16.6892C4.47177 17.5249 5.46392 18.1878 6.55585 18.6401C7.64778 19.0924 8.8181 19.3252 10 19.3252C11.1819 19.3252 12.3522 19.0924 13.4442 18.6401C14.5361 18.1878 15.5282 17.5249 16.364 16.6892C17.1997 15.8534 17.8626 14.8613 18.3149 13.7693C18.7672 12.6774 19 11.5071 19 10.3252C19 9.1433 18.7672 7.97297 18.3149 6.88104C17.8626 5.78911 17.1997 4.79696 16.364 3.96123C15.5282 3.12551 14.5361 2.46257 13.4442 2.01028C12.3522 1.55799 11.1819 1.3252 10 1.3252C8.8181 1.3252 7.64778 1.55799 6.55585 2.01028C5.46392 2.46257 4.47177 3.12551 3.63604 3.96123C2.80031 4.79696 2.13738 5.78911 1.68508 6.88104C1.23279 7.97297 1 9.1433 1 10.3252Z" stroke="#598ef7" stroke-width="2" stroke-linecap="round" stroke-linejoin="round"/>
</svg>
