<svg width="42" height="48" viewBox="0 0 42 48" fill="none" xmlns="http://www.w3.org/2000/svg">
<path d="M20.8444 46.5938C17.8514 40.5687 1.39038 40.5687 1.39038 28.5188C1.39038 20.9875 4.38329 20.9875 4.38329 13.4562C4.38329 10.4438 1.39038 7.43128 1.39038 7.43128L7.37619 1.40625C7.37619 1.40625 7.71514 1.67888 8.24865 2.10891C12.0123 5.13872 17.4369 4.83675 20.8444 1.40625H20.8452C24.2526 4.83675 29.6773 5.13872 33.4409 2.10891C33.9744 1.67888 34.3126 1.40625 34.3126 1.40625L40.2985 7.43128C40.2985 7.43128 37.3055 10.4438 37.3055 13.4562C37.3055 20.9875 40.2985 20.9875 40.2985 28.5188C40.2985 40.5687 23.8374 40.5687 20.8444 46.5938Z" fill="currentColor" stroke="#F6F9FB" stroke-width="1.79552" stroke-miterlimit="10" stroke-linecap="round" stroke-linejoin="round"/>
<path d="M20.794 15L23.2029 19.9125L28.5887 20.7003L24.6916 24.5239L25.6113 29.9231L20.794 27.3741L15.9766 29.9231L16.8969 24.5239L12.9998 20.7003L18.3856 19.9125L20.794 15Z" fill="white" stroke="white" stroke-opacity="1" stroke-width="0.781791" stroke-miterlimit="10" stroke-linecap="round" stroke-linejoin="round"/>
</svg>
