<svg width="16" height="11" viewBox="0 0 16 11" fill="none" xmlns="http://www.w3.org/2000/svg">
<path d="M8.0013 3.5C8.53174 3.5 9.04044 3.71071 9.41552 4.08579C9.79059 4.46086 10.0013 4.96957 10.0013 5.5C10.0013 6.03043 9.79059 6.53914 9.41552 6.91421C9.04044 7.28929 8.53174 7.5 8.0013 7.5C7.47087 7.5 6.96216 7.28929 6.58709 6.91421C6.21202 6.53914 6.0013 6.03043 6.0013 5.5C6.0013 4.96957 6.21202 4.46086 6.58709 4.08579C6.96216 3.71071 7.47087 3.5 8.0013 3.5ZM8.0013 0.5C11.3346 0.5 14.1813 2.57333 15.3346 5.5C14.1813 8.42667 11.3346 10.5 8.0013 10.5C4.66797 10.5 1.8213 8.42667 0.667969 5.5C1.8213 2.57333 4.66797 0.5 8.0013 0.5ZM2.1213 5.5C2.66014 6.6002 3.49684 7.52717 4.53629 8.1755C5.57574 8.82384 6.77623 9.16755 8.0013 9.16755C9.22637 9.16755 10.4269 8.82384 11.4663 8.1755C12.5058 7.52717 13.3425 6.6002 13.8813 5.5C13.3425 4.3998 12.5058 3.47283 11.4663 2.8245C10.4269 2.17616 9.22637 1.83245 8.0013 1.83245C6.77623 1.83245 5.57574 2.17616 4.53629 2.8245C3.49684 3.47283 2.66014 4.3998 2.1213 5.5Z" fill="#1D1D1D"/>
</svg>
