<svg width="12" height="14" viewBox="0 0 12 14" fill="none" xmlns="http://www.w3.org/2000/svg">
<path d="M5.03826 1.97027V12.5303C5.03826 12.9122 4.88655 13.2785 4.6165 13.5485C4.34644 13.8186 3.98017 13.9703 3.59826 13.9703H2.15826C1.77635 13.9703 1.41008 13.8186 1.14003 13.5485C0.869976 13.2785 0.718262 12.9122 0.718262 12.5303V1.97027C0.718262 1.58836 0.869976 1.22209 1.14003 0.95204C1.41008 0.681987 1.77635 0.530273 2.15826 0.530273H3.59826C3.98017 0.530273 4.34644 0.681987 4.6165 0.95204C4.88655 1.22209 5.03826 1.58836 5.03826 1.97027ZM9.83826 0.530273H8.39826C8.01635 0.530273 7.65008 0.681987 7.38003 0.95204C7.10998 1.22209 6.95826 1.58836 6.95826 1.97027V12.5303C6.95826 12.9122 7.10998 13.2785 7.38003 13.5485C7.65008 13.8186 8.01635 13.9703 8.39826 13.9703H9.83826C10.2202 13.9703 10.5864 13.8186 10.8565 13.5485C11.1265 13.2785 11.2783 12.9122 11.2783 12.5303V1.97027C11.2783 1.58836 11.1265 1.22209 10.8565 0.95204C10.5864 0.681987 10.2202 0.530273 9.83826 0.530273Z" fill="#0069CA"/>
</svg>
