<svg width="16" height="16" viewBox="0 0 16 16" fill="none" xmlns="http://www.w3.org/2000/svg">
<circle cx="8" cy="8" r="8" fill="#0069CA" fill-opacity="0.25"/>
<g clip-path="url(#clip0_2009_14639)">
<path fill-rule="evenodd" clip-rule="evenodd" d="M7.83511 10.8572V10.8572L7.81805 10.8714V10.8715C7.78942 10.8948 7.75968 10.9159 7.72892 10.9351V10.9352L7.71033 10.9464V10.9464L7.6916 10.9571V10.9572L7.67262 10.9673V10.9674L7.65337 10.9771V10.9771L7.634 10.9863V10.9864L7.6145 10.9951V10.9951L7.59475 11.0033V11.0034L7.57486 11.011V11.0111L7.55485 11.0183V11.0184L7.53471 11.0251V11.0251L7.51437 11.0313V11.0314L7.49397 11.037V11.0371L7.47344 11.0423L7.45279 11.0471L7.43207 11.0513L7.41128 11.0551L7.39043 11.0583V11.0583L7.36951 11.061L7.34854 11.0633L7.32756 11.065V11.0651L7.30651 11.0663L7.28541 11.067V11.0671L7.26436 11.0673L7.24325 11.0671V11.067L7.22221 11.0663L7.20117 11.0651V11.065L7.18012 11.0633L7.15915 11.061L7.13823 11.0583L7.11738 11.0551L7.09659 11.0513L7.07587 11.0471L7.05522 11.0423L7.03469 11.0371L7.01429 11.0313L6.99402 11.0251L6.97381 11.0184L6.9538 11.0111L6.93391 11.0034L6.91422 10.9951L6.89466 10.9864L6.87529 10.9771L6.85604 10.9674L6.83706 10.9571L6.81827 10.9464L6.79974 10.9352L6.7814 10.9234L6.76331 10.9112L6.74542 10.8984L6.72785 10.8852L6.71054 10.8715L6.69349 10.8572L6.67676 10.8424L6.66028 10.8272L6.64413 10.8115C5.38822 9.55557 5.67202 9.83937 4.41611 8.58346C4.07511 8.24233 4.07517 7.68433 4.41624 7.34319C4.75725 7.00213 5.31531 7.00213 5.65645 7.34313L7.26436 8.95111L8.45624 7.75923L8.51396 7.70151L8.56956 7.64591L8.62304 7.59243L8.67446 7.54101L8.72388 7.49159L8.77137 7.4441L8.81713 7.39834L8.86102 7.35446L8.9033 7.31218L8.9439 7.27157L8.98303 7.23244L9.02061 7.19486L9.05678 7.1587L9.09166 7.12382L9.10317 7.1123L10.6843 5.53122C11.0254 5.19008 11.5834 5.19015 11.9245 5.53122C12.2655 5.87229 12.2655 6.43035 11.9245 6.77149L10.3444 8.35154L10.3434 8.35257L10.3319 8.36408L10.297 8.3989L10.2855 8.41048L10.2609 8.43513L10.2295 8.46653L10.2233 8.47271L10.1842 8.51177L10.1752 8.52085L10.1436 8.55238L10.1226 8.57336L10.1013 8.59466L10.0718 8.6242L10.0574 8.63861L10.0226 8.67343L10.0116 8.6843L9.9749 8.72111L9.96415 8.73186L9.92869 8.76732L9.91473 8.78128L9.88397 8.81204L9.86331 8.8327L9.84059 8.85542L9.80983 8.88618L9.79857 8.89744L9.75777 8.93824L9.75423 8.94171L9.71819 8.97782L9.69651 8.9995L7.88446 10.8115C7.8685 10.8275 7.85197 10.8427 7.83511 10.8572Z" fill="#0069CA"/>
</g>
<defs>
<clipPath id="clip0_2009_14639">
<rect width="8.17021" height="8.17021" fill="white" transform="translate(4.08569 4.08594)"/>
</clipPath>
</defs>
</svg>
