<svg width="21" height="20" viewBox="0 0 21 20" fill="none" xmlns="http://www.w3.org/2000/svg">
<g clip-path="url(#clip0_926_2639)">
<path d="M10.4805 19.9961C8.85547 19.9961 7.23047 19.9961 5.60938 19.9961C3.38281 19.9922 1.77734 18.3946 1.76562 16.168C1.76172 15.3906 1.76172 14.6133 1.76562 13.836C1.76953 13.0352 2.25391 12.5196 3 12.5156C3.74609 12.5117 4.23438 13.0274 4.24219 13.8281C4.24609 14.6172 4.23828 15.4102 4.24609 16.2031C4.25391 17.0313 4.73828 17.5156 5.57422 17.5156H15.4453C16.2773 17.5156 16.7656 17.0313 16.7734 16.2031C16.7773 15.4141 16.7695 14.6211 16.7773 13.8281C16.7812 13.0274 17.2695 12.5156 18.0156 12.5156C18.7617 12.5156 19.2539 13.0313 19.2461 13.836C19.2383 14.8477 19.293 15.8711 19.168 16.8672C18.9336 18.6953 17.3789 19.9844 15.5273 19.9922C13.8398 20.0039 12.1602 19.9961 10.4805 19.9961Z" fill="#0069CA"/>
<path d="M9.26164 4.26562C9.07414 4.44141 8.96086 4.53906 8.85929 4.64062C8.06633 5.44141 7.28117 6.24609 6.48429 7.03906C5.91789 7.60547 5.13273 7.64453 4.62492 7.15234C4.11711 6.66016 4.13664 5.84766 4.69133 5.28516C6.30851 3.66016 7.92961 2.03906 9.55461 0.421875C10.1288 -0.148437 10.8749 -0.148437 11.4452 0.421875C13.082 2.04688 14.7109 3.67578 16.3359 5.3125C16.871 5.85156 16.8749 6.66406 16.3749 7.14844C15.8749 7.63281 15.0859 7.60938 14.5429 7.07031C13.7343 6.26562 12.9413 5.44922 12.1405 4.64062C12.039 4.53516 11.9257 4.4375 11.7616 4.28516C11.7499 4.50781 11.7382 4.65234 11.7382 4.80078C11.7382 7.35547 11.7421 9.91406 11.7343 12.4688C11.7304 13.4297 10.8905 14 10.0116 13.6562C9.52726 13.4688 9.26164 13.0469 9.26164 12.4297C9.25773 9.90234 9.25773 7.375 9.26164 4.84375V4.26562Z" fill="#0069CA"/>
</g>
<defs>
<clipPath id="clip0_926_2639">
<rect width="20" height="20" fill="white" transform="translate(0.5)"/>
</clipPath>
</defs>
</svg>
